<?xml version="1.0" encoding="UTF-8" standalone="no"?>
<!DOCTYPE svg PUBLIC "-//W3C//DTD SVG 1.1//EN"
 "http://www.w3.org/Graphics/SVG/1.1/DTD/svg11.dtd">
<!-- Generated by graphviz version 12.1.2 (20240928.0832)
 -->
<!-- Title: SemanticTools Pages: 1 -->
<svg width="332pt" height="252pt"
 viewBox="0.00 0.00 332.25 251.50" xmlns="http://www.w3.org/2000/svg" xmlns:xlink="http://www.w3.org/1999/xlink">
<g id="graph0" class="graph" transform="scale(1 1) rotate(0) translate(4 247.5)">
<title>SemanticTools</title>
<polygon fill="white" stroke="none" points="-4,4 -4,-247.5 328.25,-247.5 328.25,4 -4,4"/>
<text text-anchor="middle" x="162.12" y="-220.5" font-family="Times New Roman,serif" font-size="20.00">Climate Justice Dictionary</text>
<!-- IPCC Chapters(on climate justice) -->
<g id="node1" class="node">
<title>IPCC Chapters(on climate justice)</title>
<polygon fill="lightpink" stroke="black" points="203.5,-213 0,-213 0,-177 203.5,-177 203.5,-213"/>
<text text-anchor="middle" x="101.75" y="-189.95" font-family="Times New Roman,serif" font-size="14.00">IPCC Chapters(on climate justice)</text>
</g>
<!-- Wordlist -->
<g id="node2" class="node">
<title>Wordlist</title>
<polygon fill="lightyellow" stroke="black" points="218,-124.5 155.5,-124.5 155.5,-88.5 218,-88.5 218,-124.5"/>
<text text-anchor="middle" x="186.75" y="-101.45" font-family="Times New Roman,serif" font-size="14.00">Wordlist</text>
</g>
<!-- IPCC Chapters(on climate justice)&#45;&gt;Wordlist -->
<g id="edge1" class="edge">
<title>IPCC Chapters(on climate justice)&#45;&gt;Wordlist</title>
<path fill="none" stroke="black" d="M110.98,-176.56C117.11,-165.97 125.84,-152.59 135.75,-142.5 139.5,-138.68 143.73,-135.02 148.1,-131.6"/>
<polygon fill="black" stroke="black" points="149.96,-134.58 155.96,-125.85 145.82,-128.93 149.96,-134.58"/>
<text text-anchor="middle" x="197.25" y="-145.7" font-family="Times New Roman,serif" font-size="14.00"> &#160;&#160;Keyword extraction </text>
</g>
<!-- Dictionary(Wikimedia enhanced) -->
<g id="node3" class="node">
<title>Dictionary(Wikimedia enhanced)</title>
<polygon fill="lightblue" stroke="black" points="285.88,-36 87.63,-36 87.63,0 285.88,0 285.88,-36"/>
<text text-anchor="middle" x="186.75" y="-12.95" font-family="Times New Roman,serif" font-size="14.00">Dictionary(Wikimedia enhanced)</text>
</g>
<!-- Wordlist&#45;&gt;Dictionary(Wikimedia enhanced) -->
<g id="edge2" class="edge">
<title>Wordlist&#45;&gt;Dictionary(Wikimedia enhanced)</title>
<path fill="none" stroke="black" d="M186.75,-88.41C186.75,-76.76 186.75,-61.05 186.75,-47.52"/>
<polygon fill="black" stroke="black" points="190.25,-47.86 186.75,-37.86 183.25,-47.86 190.25,-47.86"/>
<text text-anchor="middle" x="210" y="-57.2" font-family="Times New Roman,serif" font-size="14.00"> &#160;&#160;amilib</text>
</g>
<!-- literature search -->
<g id="node4" class="node">
<title>literature search</title>
<polygon fill="lightpink" stroke="black" points="324.25,-213 221.25,-213 221.25,-177 324.25,-177 324.25,-213"/>
<text text-anchor="middle" x="272.75" y="-189.95" font-family="Times New Roman,serif" font-size="14.00">literature search</text>
</g>
<!-- literature search&#45;&gt;Wordlist -->
<g id="edge3" class="edge">
<title>literature search&#45;&gt;Wordlist</title>
<path fill="none" stroke="black" d="M271.64,-176.57C270.14,-165.72 266.67,-152.06 258.75,-142.5 250.89,-133.01 239.84,-125.9 228.75,-120.65"/>
<polygon fill="black" stroke="black" points="230.17,-117.45 219.6,-116.77 227.43,-123.9 230.17,-117.45"/>
</g>
</g>
</svg>
