<?xml version="1.0" encoding="UTF-8" standalone="no"?>
<!DOCTYPE svg PUBLIC "-//W3C//DTD SVG 1.1//EN"
 "http://www.w3.org/Graphics/SVG/1.1/DTD/svg11.dtd">
<!-- Generated by graphviz version 12.1.2 (20240928.0832)
 -->
<!-- Title: G Pages: 1 -->
<svg width="656pt" height="188pt"
 viewBox="0.00 0.00 656.34 188.00" xmlns="http://www.w3.org/2000/svg" xmlns:xlink="http://www.w3.org/1999/xlink">
<g id="graph0" class="graph" transform="scale(1 1) rotate(0) translate(4 184)">
<title>G</title>
<polygon fill="#f9f9f9" stroke="none" points="-4,4 -4,-184 652.34,-184 652.34,4 -4,4"/>
<!-- IPCC_Reports -->
<g id="node1" class="node">
<title>IPCC_Reports</title>
<ellipse fill="#004a99" stroke="#004a99" cx="117.43" cy="-162" rx="68.53" ry="18"/>
<text text-anchor="middle" x="117.43" y="-156.57" font-family="Arial Bold" font-size="14.00" fill="white">IPCC Reports</text>
</g>
<!-- sematicClimate_tooling -->
<g id="node2" class="node">
<title>sematicClimate_tooling</title>
<ellipse fill="#004a99" stroke="#004a99" cx="117.43" cy="-90" rx="117.43" ry="18"/>
<text text-anchor="middle" x="117.43" y="-84.58" font-family="Arial Bold" font-size="14.00" fill="white">semanticClimate Tooling</text>
</g>
<!-- IPCC_Reports&#45;&gt;sematicClimate_tooling -->
<g id="edge1" class="edge">
<title>IPCC_Reports&#45;&gt;sematicClimate_tooling</title>
<path fill="none" stroke="#ff9900" d="M117.43,-143.59C117.43,-136.28 117.43,-127.69 117.43,-119.56"/>
<polygon fill="#ff9900" stroke="#ff9900" points="120.93,-119.68 117.43,-109.68 113.93,-119.68 120.93,-119.68"/>
<text text-anchor="middle" x="108.43" y="-122.5" font-family="Arial Italic" font-size="10.00">TDM Semantification</text>
</g>
<!-- Wikibase -->
<g id="node3" class="node">
<title>Wikibase</title>
<ellipse fill="#004a99" stroke="#004a99" cx="498.98" cy="-90" rx="49.57" ry="18"/>
<text text-anchor="middle" x="498.98" y="-84.58" font-family="Arial Bold" font-size="14.00" fill="white">Wikibase</text>
</g>
<!-- sematicClimate_tooling&#45;&gt;Wikibase -->
<g id="edge2" class="edge">
<title>sematicClimate_tooling&#45;&gt;Wikibase</title>
<path fill="none" stroke="#ff9900" d="M235.14,-90C302.12,-90 383.43,-90 437.71,-90"/>
<polygon fill="#ff9900" stroke="#ff9900" points="437.69,-93.5 447.69,-90 437.69,-86.5 437.69,-93.5"/>
<text text-anchor="middle" x="292.24" y="-92.5" font-family="Arial Italic" font-size="10.00">Linked Open Data</text>
</g>
<!-- W3C_CSS_Paged_Media_Web_Publication_Manifest -->
<g id="node4" class="node">
<title>W3C_CSS_Paged_Media_Web_Publication_Manifest</title>
<ellipse fill="#004a99" stroke="#004a99" cx="498.98" cy="-18" rx="149.37" ry="18"/>
<text text-anchor="middle" x="498.98" y="-12.57" font-family="Arial Bold" font-size="14.00" fill="white">W3C CSS Paged Media Manifest</text>
</g>
<!-- Wikibase&#45;&gt;W3C_CSS_Paged_Media_Web_Publication_Manifest -->
<g id="edge3" class="edge">
<title>Wikibase&#45;&gt;W3C_CSS_Paged_Media_Web_Publication_Manifest</title>
<path fill="none" stroke="#ff9900" d="M498.98,-71.59C498.98,-64.28 498.98,-55.69 498.98,-47.56"/>
<polygon fill="#ff9900" stroke="#ff9900" points="502.48,-47.68 498.98,-37.68 495.48,-47.68 502.48,-47.68"/>
<text text-anchor="middle" x="489.98" y="-50.5" font-family="Arial Italic" font-size="10.00">Publishing</text>
</g>
</g>
</svg>
